<?xml version="1.0" encoding="iso-8859-1"?>
<!-- Generator: Adobe Illustrator 18.0.0, SVG Export Plug-In . SVG Version: 6.00 Build 0)  -->
<!DOCTYPE svg PUBLIC "-//W3C//DTD SVG 1.1//EN" "http://www.w3.org/Graphics/SVG/1.1/DTD/svg11.dtd">
<svg version="1.1" id="Capa_1" xmlns="http://www.w3.org/2000/svg" xmlns:xlink="http://www.w3.org/1999/xlink" x="0px" y="0px"
	 viewBox="0 0 277.536 277.536" style="enable-background:new 0 0 277.536 277.536;" xml:space="preserve">
<g>
	<path style="fill:#1D1D1B;" d="M218.573,56.383c-13.542-9.671-34.241-7.785-44.947,5.27c-9.92,12.097-8.489,31.233,3.048,41.611
		c-0.804,0.759-0.992,2.171,0.258,2.915c13.918,8.302,32.603,5.729,44.357-5.324C234.798,88.151,233.887,67.32,218.573,56.383z
		 M214.85,101.203c-10.904,7.415-24.43,7.77-35.965,1.811c0.003-0.231-0.066-0.476-0.279-0.701
		c-10.077-10.679-12.064-27.954-1.83-39.408c9.862-11.036,28.078-12.076,39.738-3.541C231.736,70.505,229.847,91.003,214.85,101.203
		z"/>
	<path style="fill:#1D1D1B;" d="M125.114,33.749c0.549-2.615-3.463-3.733-4.015-1.108c-4.282,20.367-8.579,40.73-12.832,61.104
		c-3.872,18.547-7.894,19.495,6.71,31.229c1.454,1.168,3.424-0.674,2.089-2.089c-12.395-13.157-4.531-29.214-1.214-45.004
		C118.942,63.171,122.027,48.46,125.114,33.749z"/>
	<path style="fill:#1D1D1B;" d="M274.048,59.999c0.781-0.795,1.026-2.018-0.071-2.979c-20.694-18.127-39.623-37.941-59.774-56.612
		c-0.896-0.83-1.948-0.275-2.227,0.589c-1.011,0.122-1.878,1.196-1.193,2.225c-4.317-6.483-34.885,7.518-40.159,9.525
		c-15.853,6.033-31.903,10.465-47.963,15.777c-1.097,0.363-0.99,2.213,0.288,2.122c31.811-2.256,58.976-22.14,90.859-24.549
		c0.447-0.034,0.841-0.214,1.169-0.47c2.631,3.151,5.412,6.189,8.191,9.229c-6.219-0.698-12.621-0.744-18.817-1.09
		c-1.275-0.071-1.239,1.845,0,1.963c6.983,0.668,14.186,1.813,21.217,1.83c3.849,4.116,7.8,8.152,11.83,12.114
		c-8.284-1.022-16.608-1.821-24.906-2.648c-1.045-0.104-1.303,1.708-0.251,1.85c9.312,1.256,18.642,2.615,27.992,3.565
		c4.501,4.349,9.054,8.645,13.685,12.844c-8.195-3.032-17.672-3.487-26.267-2.932c-1.097,0.071-1.119,1.754,0,1.725
		c9.252-0.236,17.611,1.668,26.529,3.75c0.882,0.206,1.348-0.431,1.349-1.096c3.808,3.434,7.636,6.834,11.47,10.194
		c-0.239,0.716-0.082,1.588,0.655,1.942c1.027,0.494,2.054,0.987,3.081,1.481c-0.175,0.203-0.338,0.426-0.448,0.716
		c-0.043,0.114-0.079,0.23-0.122,0.343c-0.096-0.091-0.161-0.211-0.296-0.26c-9.893-3.588-21.144-5.094-31.461-7.204
		c-1.141-0.233-1.632,1.46-0.485,1.759c10.258,2.677,21.083,6.276,31.622,7.443c-0.99,2.681-1.967,5.366-2.88,8.07
		c-8.829-1.668-18.402-1.631-27.335-2.122c-1.096-0.06-1.03,1.531,0,1.666c8.635,1.126,17.781,2.866,26.536,2.913
		c-0.992,3.027-1.965,6.059-2.864,9.114c-8.565-1.518-17.334-2.398-25.975-3.387c-0.97-0.111-1.197,1.536-0.232,1.714
		c8.425,1.556,16.934,3.23,25.439,4.285c-0.999,3.523-1.952,7.059-2.808,10.624c0,0-0.008-0.01-0.014-0.012
		c-7.66-2.525-16.559-3.38-24.549-4.532c-1.065-0.153-1.567,1.39-0.459,1.664c7.853,1.939,16.436,4.456,24.516,5.026
		c-0.31,1.347-0.663,2.682-0.951,4.035c-0.648,3.05-1.1,6.319-1.543,9.649c-8.567-3.611-18.377-5.421-27.293-7.923
		c-1.061-0.298-1.495,1.313-0.453,1.644c8.911,2.838,18.223,6.842,27.444,8.459c-0.441,3.316-0.901,6.67-1.566,9.945
		c-11.594-3.689-24.087-5.686-36.002-8.146c-0.979-0.202-1.398,1.244-0.416,1.511c11.765,3.199,23.84,7.076,35.877,9.024
		c-0.985,4.097-2.331,8.021-4.471,11.471c-0.076-0.363-0.261-0.709-0.663-0.86c-6.172-2.299-13.01-3.115-19.405-4.775
		c-6.455-1.676-12.803-3.676-19.166-5.666c-1.348-0.421-1.853,1.602-0.574,2.084c11.833,4.468,26.112,10.013,38.861,10.46
		c0.056,0.002,0.078-0.04,0.13-0.045c-0.736,1.056-1.525,2.08-2.433,3.03c-0.214-0.015-0.439,0.005-0.674,0.09
		c-2.204,0.795-4.809,1.848-7.714,3.063c-0.075-0.369-0.265-0.712-0.717-0.831c-15.264-4.048-31.361-5.503-46.774-9.383
		c-0.92-0.231-1.287,1.127-0.39,1.415c13.933,4.473,29.962,9.535,44.821,10.089c-4.199,1.78-8.894,3.798-13.857,5.823
		c-0.06-0.514-0.382-0.97-1.066-1.099c-16.74-3.143-33.572-5.862-50.396-8.51c-0.863-0.136-1.258,1.148-0.369,1.339
		c16.017,3.419,32.069,6.758,48.177,9.731c-5.463,2.167-11.15,4.283-16.83,6.046c-0.127-0.239-0.335-0.433-0.644-0.512
		c-19.461-4.978-39.078-8.243-58.316-14.276c-0.994-0.311-1.396,1.213-0.427,1.549c17.661,6.13,36.332,12.266,55.036,14.512
		c-15.993,4.436-31.152,5.505-39.055-3.394c-0.82-0.923-2.221-0.299-2.598,0.649c-0.503-0.967-2.077-1.446-3.103-0.643
		c-3.265,2.557-6.299,5.48-9.23,8.53c0.248-0.546,0.133-1.257-0.593-1.424c-7.941-1.825-16.638-1.783-24.746-2.503
		c-1.109-0.098-1.062,1.568,0,1.706c7.997,1.031,16.402,2.935,24.467,2.862c0.185-0.002,0.308-0.106,0.446-0.184
		c-2.687,2.817-5.297,5.728-7.912,8.566c-2.825-0.41-5.735-0.203-8.59-0.401c-3.956-0.274-7.858-0.877-11.73-1.724
		c-0.893-0.195-1.274,1.143-0.379,1.376c5.583,1.462,12.532,3.354,18.629,2.98c-0.23,0.243-0.457,0.5-0.688,0.742
		c-2.721,2.842-5.809,5.688-8.8,8.628c-7.499-1.118-15.165-1.119-22.703-2.323c-1.072-0.171-1.562,1.417-0.459,1.664
		c6.502,1.453,14.016,3.08,20.883,2.956c-2.496,2.575-4.837,5.237-6.706,8.058c-0.452,0.684-0.967,1.529-1.345,2.408
		c-0.65-0.024-1.251,0.332-1.565,0.959c-7.616-0.555-14.976-1.022-22.492-3.081c-0.929-0.255-1.299,1.135-0.396,1.434
		c6.937,2.291,14.805,4.261,22.314,4.253c-0.692,4.646-0.084,9.787,0.986,14.676c-10.754-3.45-23.672-3.504-34.819-4.025
		c-1.083-0.05-1.052,1.569,0,1.666c11.666,1.073,23.416,4.197,35.062,4.633c0.111,0.004,0.165-0.069,0.259-0.091
		c0.237,0.976,0.481,1.937,0.728,2.872c-9.276,1.222-18.788,0.928-27.925,2.534c-0.71-2.05-3.866-2.062-3.937,0.463
		c-0.014,0.467,0.012,0.937,0.005,1.404c-7.449-1.297-15.401-1.365-22.844-2.014c-1.157-0.101-1.116,1.648,0,1.785
		c7.447,0.908,15.28,2.512,22.854,2.749c0.026,3.588,0.15,7.184,0.362,10.781c-10.461-2.575-21.9-3.247-32.589-4.418
		c-0.904-0.099-1.116,1.432-0.216,1.597c10.707,1.974,21.991,4.66,32.869,5.155l0.069-0.025c0.11,1.772,0.224,3.543,0.327,5.309
		c-6.927-0.996-20.079-3.761-23.186,1.616c-0.508,0.878-0.663,1.951-0.652,3.082c-6.47-2.005-14.195-2.325-20.805-3.149
		c-0.862-0.107-1.054,1.344-0.206,1.519c6.672,1.381,14.291,3.692,21.193,3.779c0.289,1.805,0.809,3.589,1.037,4.905
		c0.302,1.747,0.636,3.564,0.716,5.276c-0.049-0.04-0.061-0.107-0.125-0.136c-3.65-1.627-7.665-2.331-11.536-3.286
		c-4.438-1.095-8.87-2.371-13.396-3.022c-0.842-0.121-1.162,0.967-0.353,1.281c4.256,1.653,8.747,2.717,13.143,3.94
		c3.852,1.071,7.687,2.432,11.677,2.806c0.228,0.022,0.42-0.06,0.571-0.194c-0.144,2.546-1.113,4.718-4.144,5.794
		c-3.426,1.215-9.278,0.353-13.105,0.525c-0.071-0.337-0.215-0.673-0.529-0.976c-5.719-5.533-12.596-9.922-18.573-15.224
		c-5.146-4.566-10.08-9.353-15.219-13.92c0.331-0.107,0.663-0.214,0.993-0.321c1.584-0.511,1.772-2.981,0-3.403
		c4.272,1.02,25.97-23.67,29.378-27.151c9.012-9.205,17.55-18.847,26.107-28.47c17.152-19.289,34.625-37.863,53.97-54.99
		c1.327-1.174-0.469-3.58-1.922-2.491c-21.754,16.293-39.469,36.817-57.478,57.017c-9.343,10.478-18.72,20.933-28.729,30.785
		c-8.246,8.116-19.283,15.096-26.191,24.313c-0.459,0.612-0.34,1.535-0.014,2.173c-0.72,0.239-1.24,0.985-0.682,1.775
		c4.743,6.717,10.428,12.444,16.552,17.918c5.931,5.302,12.329,11.378,19.428,15.072c0.409,0.213,0.821,0.242,1.209,0.182
		c0.226,0.452,0.656,0.817,1.328,0.875c6.327,0.548,21.502,4.719,23.232-4.762c0.981-5.381-4.136-11.865-1.459-16.914
		c-0.132-2.744,1.175-3.495,3.92-2.253c1.635,0.101,3.27,0.201,4.905,0.302c3.815,0.235,7.63,0.47,11.445,0.705
		c1.219,0.075,2.408-1.135,2.344-2.344c-0.399-7.626-0.53-15.368-1.388-22.968c9.742,2.459,21.355,0.685,31.065-0.84
		c1.226-0.193,1.886-1.726,1.596-2.81c-1.731-6.454-1.795-13.132-2.87-19.594c1.133,0.081,2.049-0.674,2.774-1.771
		c0.586-0.886-0.716-1.843-1.448-1.118c3.082-3.055,6.082-7.207,9.308-10.511c3.561-3.647,7.086-7.331,10.626-11.001
		c6.35-6.583,13.476-12.865,18.825-20.29c0.134-0.185,0.198-0.364,0.256-0.541c0.03,0.055,0.034,0.109,0.074,0.163
		c6.963,9.44,16.559,10.138,27.61,8.178c21.85-3.872,44.708-12.951,64.801-22.201c0.085-0.039,0.13-0.105,0.203-0.153
		c0.459,0.035,0.949-0.091,1.397-0.454c9.223-7.488,9.58-18.458,11.476-29.474c3.137-18.226,8.169-35.875,14.546-53.222
		C275.06,61.263,274.698,60.47,274.048,59.999z"/>
	<path style="fill:#1D1D1B;" d="M149.745,155.416c-6.769-2.737-15.193-3.227-22.43-3.538c-1.153-0.049-1.107,1.649,0,1.765
		c7.422,0.778,14.503,2.927,21.829,3.953C150.585,157.798,151.11,155.968,149.745,155.416z"/>
</g>
<g>
</g>
<g>
</g>
<g>
</g>
<g>
</g>
<g>
</g>
<g>
</g>
<g>
</g>
<g>
</g>
<g>
</g>
<g>
</g>
<g>
</g>
<g>
</g>
<g>
</g>
<g>
</g>
<g>
</g>
</svg>
