<?xml version="1.0" encoding="iso-8859-1"?>
<!-- Generator: Adobe Illustrator 18.0.0, SVG Export Plug-In . SVG Version: 6.00 Build 0)  -->
<!DOCTYPE svg PUBLIC "-//W3C//DTD SVG 1.1//EN" "http://www.w3.org/Graphics/SVG/1.1/DTD/svg11.dtd">
<svg version="1.1" id="Capa_1" xmlns="http://www.w3.org/2000/svg" xmlns:xlink="http://www.w3.org/1999/xlink" x="0px" y="0px"
	 viewBox="0 0 266.549 266.549" style="enable-background:new 0 0 266.549 266.549;" xml:space="preserve">
<g>
	<path style="fill:#1D1D1B;" d="M221.941,58.367c0.008-0.568-0.191-1.145-0.75-1.565c-5.489-4.119-10.775-8.504-16.145-12.775
		c-0.242-0.539-0.745-0.934-1.56-0.867c-4.018,0.332-8.036,0.78-12.039,1.261c-1.848,0.222-3.764,0.359-5.616,0.709
		c0.128-0.301,0.202-0.636,0.123-1.033c-3.401-17.029-31.795-24.018-47.167-24.706c0.778-4.462,1.309-8.956,1.08-13.104
		c-0.016-0.28-0.102-0.514-0.216-0.723c0.088-0.316,0.12-0.641,0.031-0.949c-1.196-4.124-9.18-4.801-12.643-4.576
		c-2.751,0.179-10.313,1.583-10.76,5.289c-0.571,0.246-0.988,0.748-0.887,1.53c0.584,4.56,1.464,9.09,2.58,13.561
		c-0.204-0.076-0.434-0.107-0.691-0.075c-7.738,0.957-15.165,2.966-22.232,6.294c-5.379,2.533-12.479,6.053-16.348,11.13
		c-0.167,0.046-0.336,0.122-0.501,0.255c-1.05,0.844-1.854,1.973-2.684,3.041c-0.124-0.061-0.256-0.107-0.38-0.169
		c-0.815-0.407-1.504,0.086-1.679,0.732c-5.005-0.079-10.249,1.189-15.076,2.275c-4.091,0.92-9.43,1.544-12.669,4.386
		c-0.009,0.009-0.007,0.025-0.016,0.034c-0.466,0-0.906,0.26-1.046,0.768c-1.016,3.702,6.994,10.28,9.078,12.55
		c5.125,5.585,10.526,11.452,16.651,15.977c1.435,28.712,6.684,57.976,10.967,86.423c-0.481,0.496-0.406,1.486,0.293,1.817
		c-8.058,24.167-13.701,49.896-18.801,74.835c-0.021,0.106,0.002,0.194-0.003,0.293c-0.292,0.421-0.345,1.001,0.129,1.519
		c28.095,30.802,90.169,32.461,119.743,2.37c0.732,0.744,2.052,0.494,2.556-0.371c3.644-6.252-2.303-22.041-3.569-28.458
		c-3.344-16.952-10.123-34.023-12.37-51.112c1.234-0.697,0.745-2.657-0.629-2.958c7.068-31.643,10.597-64.589,14.535-97.018
		c3.885-0.066,8.206,0.003,11.719-1.279c0.545,1.247,1.202,2.417,2.113,3.498c0.863,1.025,2.113,2.3,3.497,2.721
		c-0.576,16.931-1.358,33.946-0.964,50.886c-6.741,0.025-15.012,4.098-12.261,12.086c1.31,3.802,5.151,6.419,8.668,7.973
		c2.866,1.267,8.1,3.14,10.697,0.661c0.033-0.031,0.025-0.087,0.051-0.124c0.61-0.072,1.152-0.456,1.302-1.271
		c4.977-27.021,11.037-54.265,13.938-81.598C221.995,58.45,221.945,58.423,221.941,58.367z M122.82,4.53
		c1.565-0.498,3.177-0.783,4.818-0.835c1.443-0.046,2.86,0.092,4.268,0.421c1.601,0.374,2.978,1.86,4.116,0.44
		c-0.006,0.024-0.027,0.043-0.031,0.068c-0.011,0.072-0.021,0.143-0.032,0.215c-0.104,0.698,0.118,1.265,0.559,1.638
		c-2.07,6.812-2.357,15.006-2.743,22.274c-1.437,0.63-2.685,1.624-4.321,1.982c-2.019,0.441-3.873,0.192-5.814-0.315
		c-1.748-7.932-3.282-15.865-4.702-23.861c0.342-0.51,0.369-1.22-0.117-1.698C120.294,6.306,121.144,5.064,122.82,4.53z
		 M174.296,199.936c1.555,6.637,2.977,13.301,4.244,20c0.723,3.827,1.399,7.663,2.028,11.507c0.026,1.374,0.198,2.701,0.484,3.99
		c-9.863-1.048-20.253-0.071-30.162,0.041c-0.948,0.011-0.949,1.462,0,1.473c10.044,0.114,20.594,1.135,30.578,0.014
		c0.278,0.909,0.596,1.806,0.998,2.674c-1.792,1.861-3.705,3.545-5.669,5.151c-0.114-0.163-0.268-0.294-0.498-0.295
		c-9.525-0.062-19.02,0.78-28.575,0.569c-0.735-0.016-0.719,1.08,0,1.132c9.002,0.639,18.642,1.074,27.635-0.251
		c-3.293,2.545-6.768,4.802-10.417,6.728c-0.053-0.027-0.075-0.081-0.144-0.093c-6.765-1.112-13.747-0.384-20.462,0.753
		c-0.876,0.148-0.488,1.431,0.363,1.316c6.003-0.81,11.922-0.713,17.929-0.765c-30.357,14.667-70.767,8.601-96.628-12.179
		c0.016-0.046,0.046-0.072,0.06-0.12c6.813-24.435,13.546-49.764,17.549-74.842c0.222-0.063,0.417-0.174,0.592-0.307
		c27.223,5.585,55.615,4.938,82.75-0.915c-0.015,0.376,0.001,0.753-0.002,1.13c-5.781,0.643-11.73,1.796-17.337,3.239
		c-0.886,0.228-0.735,1.737,0.222,1.641c5.678-0.569,11.567-1.521,17.14-2.874c0.122,2.633,0.498,5.276,1.024,7.92
		c-6.495,0.063-13.33,1.9-19.529,3.534c-1.009,0.266-0.583,1.787,0.43,1.559c6.41-1.446,13.043-1.975,19.423-3.43
		C169.957,185.577,172.645,192.894,174.296,199.936z M82.383,145.287c15.981,6.442,32.625,6.896,49.884,5.952
		c9.278-0.507,26.728-0.416,35.674-6.311c-0.548,5.762-1.032,11.521-1.365,17.269c-27.728,4.942-54.179,5.158-82.017,1.85
		C83.812,157.831,83.101,151.568,82.383,145.287z M180.05,59.941c-0.11-0.072-0.17-0.187-0.329-0.214
		c-6.447-1.112-13.252-0.351-19.629,0.903c-1.354,0.266-0.742,2.202,0.559,2.026c6.303-0.851,12.445-0.605,18.77-0.707
		c0.14-0.002,0.225-0.1,0.341-0.148c-0.522,3.354-1.03,6.693-1.554,10.049c-6.53-0.197-13.479,0.534-19.949,1.376
		c-0.945,0.123-1.014,1.508,0,1.527c6.411,0.118,13.241,0.033,19.627-0.823c-0.446,2.855-0.876,5.687-1.322,8.545
		c-7.159,0.089-14.251,0.694-21.441,0.536c-1.168-0.026-1.112,1.658,0,1.778c6.805,0.737,14.302,0.975,21.123-0.272
		c-0.503,3.236-1.013,6.465-1.51,9.704c-6.188,0.608-12.381,1.289-18.564,1.935c-0.704,0.074-0.704,1.022,0,1.096
		c5.917,0.622,12.34,0.264,18.252-0.992c-0.591,3.88-1.219,7.75-1.78,11.634c-6.919,0.854-13.699,2.012-20.695,2.227
		c-1.051,0.032-1.054,1.606,0,1.634c6.792,0.185,13.888-0.18,20.453-2.113c-0.674,4.709-1.353,9.419-1.958,14.13
		c-0.181-0.152-0.4-0.256-0.673-0.194c-5.996,1.356-11.612,2.803-17.824,2.75c-1.268-0.011-1.25,1.886,0,1.958
		c6.153,0.352,12.811-0.262,18.33-3.194c-0.443,3.491-0.941,6.982-1.331,10.471c-6.383,0.715-12.707,1.912-19.122,2.48
		c-1.008,0.089-1.042,1.637,0,1.599c6.231-0.23,12.776-0.667,18.904-2.171c-0.067,0.619-0.148,1.239-0.213,1.857
		c-0.453,0.203-0.829,0.596-0.998,1.064c-0.052,0.143-0.103,0.286-0.155,0.428c-0.251,0.695,0.209,1.36,0.827,1.682
		c-0.02,0.2-0.042,0.399-0.061,0.598c-3.868,1.14-12.971,1.682-16.346,2.344c-8.378,1.644-17.013,2.07-25.529,2.337
		c-15.212,0.476-29.633-0.771-44.192-5.292c-2.482-21.607-5.142-43.408-9.764-64.423c0.674-0.464,0.995-1.567,0.335-2.296
		c-4.298-4.748-9.294-8.925-13.775-13.516c-2.128-2.181-4.229-4.391-6.298-6.626c-0.921-0.994-1.824-2-2.736-3.001
		c-0.665-0.766-1.349-1.516-2.051-2.248c-0.028-0.062-0.063-0.09-0.092-0.144c0.215-0.262,0.295-0.613-0.033-0.874
		c1.735,1.383,11.783-2.138,13.727-2.517c4.447-0.868,9.125-1.143,13.452-2.448c0.322-0.097,0.514-0.301,0.679-0.513
		c12.758,8.258,27.641,8.512,42.614,8.777c21.347,0.377,42.772-1.046,63.797-4.796C181.315,51.869,180.676,55.912,180.05,59.941z
		 M181.922,44.4c-32.012,4.053-73.935,11.452-104.537-2.507c0.477-0.369,0.916-0.769,1.363-1.17
		c5.616-2.411,10.213-7.067,15.763-9.829c7.39-3.678,15.107-5.839,23.248-7.023c0.45-0.065,0.759-0.31,0.969-0.624
		c0.761,2.758,1.585,5.499,2.542,8.188c0.103,0.289,0.277,0.479,0.473,0.623c0.093,0.21,0.228,0.409,0.451,0.559
		c2.192,1.48,5.02,1.921,7.608,1.534c1.47-0.221,3.412-0.779,4.844-1.769c0.705,0.196,1.549-0.054,1.719-0.907
		c0.604-3.031,1.326-6.277,1.963-9.581c7.99,1.47,19.607,3.611,29.004,7.974c-5.496-0.144-11.081,0.116-16.438,0.248
		c-0.964,0.023-0.955,1.438,0,1.491c6.813,0.377,14.001,0.993,20.91,0.641c2.513,1.523,4.76,3.251,6.562,5.248
		c-7.696-0.675-15.689,0.049-23.289,1.006c-0.94,0.118-0.982,1.594,0,1.509c8.392-0.73,16.629-0.298,25.011-0.336
		c0.997,1.469,1.808,3.043,2.319,4.771C182.253,44.409,182.1,44.377,181.922,44.4z M204.586,139.154
		c-0.007,0.04,0.007,0.071,0.002,0.11c-0.846-0.198-1.747-0.259-2.78-0.493c-2.575-0.584-5.066-1.603-7.229-3.129
		c-3.134-2.212-5.499-5.935-2.118-9.237c2.074-2.025,4.938-2.251,7.684-2.296c0.455,0.317,1.101,0.302,1.558-0.043
		c1.505-0.139,1.998-2.403,0.659-2.983c1.406-17.57,1.537-35.296,1.94-52.908c0.035-1.551-1.506-2.065-2.606-1.588
		c-0.687-0.527-1.474-0.969-2.113-1.519c-1.23-1.059-2.252-2.336-3.135-3.693c-0.389-0.597-1.109-0.609-1.615-0.305
		c-3.558-0.518-7.553,0.269-11.247,0.966c0.562-4.593,1.134-9.175,1.729-13.74c2.304,0.089,4.686-0.263,6.936-0.446
		c3.748-0.305,7.502-0.63,11.237-1.06c0.29-0.034,0.542-0.123,0.761-0.249c4.597,4.961,9.705,9.329,15.094,13.426
		c0.066,0.049,0.129,0.053,0.194,0.093C213.005,85.982,209.24,112.846,204.586,139.154z"/>
	<path style="fill:#1D1D1B;" d="M176.302,223.155c-8.139,0.013-16.17,1.011-24.35,0.669c-0.85-0.036-0.833,1.247,0,1.311
		c7.972,0.617,16.681,1.211,24.56-0.428C177.396,224.524,177.18,223.154,176.302,223.155z"/>
	<path style="fill:#1D1D1B;" d="M175.206,212.246c-8.778-0.129-17.706,1.019-26.46,1.664c-0.798,0.059-0.817,1.287,0,1.258
		c8.764-0.32,17.756-0.164,26.46-1.252C176.241,213.787,176.313,212.262,175.206,212.246z"/>
	<path style="fill:#1D1D1B;" d="M171.771,198.286c-7.348,1.391-14.431,2.96-21.939,3.394c-0.939,0.054-0.956,1.482,0,1.473
		c7.391-0.072,15.39-0.688,22.445-3.031C173.449,199.733,172.971,198.059,171.771,198.286z"/>
	<path style="fill:#1D1D1B;" d="M168.747,186.151c-6.471,1.347-12.979,3.388-19.281,5.385c-1.06,0.336-0.626,1.902,0.458,1.663
		c6.455-1.424,13.113-2.914,19.391-4.987C170.625,187.78,170.095,185.87,168.747,186.151z"/>
</g>
<g>
</g>
<g>
</g>
<g>
</g>
<g>
</g>
<g>
</g>
<g>
</g>
<g>
</g>
<g>
</g>
<g>
</g>
<g>
</g>
<g>
</g>
<g>
</g>
<g>
</g>
<g>
</g>
<g>
</g>
</svg>
