<?xml version="1.0" encoding="iso-8859-1"?>
<!-- Generator: Adobe Illustrator 18.1.1, SVG Export Plug-In . SVG Version: 6.00 Build 0)  -->
<svg version="1.1" id="Capa_1" xmlns="http://www.w3.org/2000/svg" xmlns:xlink="http://www.w3.org/1999/xlink" x="0px" y="0px"
	 viewBox="0 0 443.744 443.744" style="enable-background:new 0 0 443.744 443.744;" xml:space="preserve">
<g>
	<path style="fill:#010002;" d="M418.433,155.515l-28.355,28.355C372.225,93.006,291.72,24.965,196.907,24.965
		C88.334,24.965,0,113.299,0,221.872s88.334,196.907,196.907,196.907c57.342,0,111.724-24.93,149.196-68.398l7.793-9.04
		l-27.119-23.384l-7.793,9.046c-30.664,35.574-75.165,55.975-122.076,55.975c-88.835,0-161.105-72.271-161.105-161.105
		S108.072,60.767,196.907,60.767c70.684,0,132.035,46.673,153.193,111.461l-12.733-12.733l-25.311,25.317l54.698,54.698h18.318
		l58.672-58.678L418.433,155.515z M380.131,227.576h-8.437l-42.765-42.765l8.437-8.437l32,32
		c-6.916-89.121-81.597-159.542-172.46-159.542c-95.41,0-173.039,77.623-173.039,173.039c0,95.41,77.629,173.039,173.039,173.039
		c50.39,0,98.179-21.91,131.116-60.116l9.046,7.799c-35.205,40.837-86.293,64.257-140.156,64.257
		c-101.998,0-184.973-82.975-184.973-184.973c0-101.992,82.975-184.973,184.973-184.973c97.809,0,178.075,76.316,184.508,172.52
		l37.018-37.024l8.437,8.437L380.131,227.576z"/>
</g>
<g>
</g>
<g>
</g>
<g>
</g>
<g>
</g>
<g>
</g>
<g>
</g>
<g>
</g>
<g>
</g>
<g>
</g>
<g>
</g>
<g>
</g>
<g>
</g>
<g>
</g>
<g>
</g>
<g>
</g>
</svg>
