<?xml version="1.0" encoding="iso-8859-1"?>
<!-- Generator: Adobe Illustrator 18.0.0, SVG Export Plug-In . SVG Version: 6.00 Build 0)  -->
<!DOCTYPE svg PUBLIC "-//W3C//DTD SVG 1.1//EN" "http://www.w3.org/Graphics/SVG/1.1/DTD/svg11.dtd">
<svg version="1.1" id="Capa_1" xmlns="http://www.w3.org/2000/svg" xmlns:xlink="http://www.w3.org/1999/xlink" x="0px" y="0px"
	 viewBox="0 0 265.624 265.624" style="enable-background:new 0 0 265.624 265.624;" xml:space="preserve">
<g>
	<path style="fill:#1D1D1B;" d="M196.04,2.916c-0.012-1.665-1.709-2.218-2.874-1.698c-0.263-0.217-0.589-0.381-1.028-0.397
		c-39.924-1.446-80.641-0.836-120.561,0.693c-1.854,0.071-1.929,2.673-0.249,2.978c-0.053,0.173-0.115,0.341-0.117,0.552
		c-0.389,42.83-0.786,85.659-1.195,128.488c-0.407,42.622-3.028,85.941-0.361,128.488c0.091,1.461,2.144,1.447,2.261,0
		c3.423-42.498,1.582-85.86,1.939-128.488c0.358-42.83,0.728-85.659,1.105-128.488c0.001-0.16-0.052-0.28-0.082-0.418
		c38.866,1.112,78.423,1.337,117.226-0.393c1.078,85.331-1.975,170.701-0.823,255.996c-0.272-0.109-0.626-0.173-1.178-0.129
		c-1.677-0.235-3.355-0.47-5.031-0.706c-1.594-0.547-3.932-0.403-5.542-0.494c-11.572-0.654-23.238,0.921-34.773,1.641
		c-23.582,1.474-47.603-1.348-71.064,1.385c-1.488,0.173-1.492,2.146,0,2.32c39.58,4.601,79.598-4.144,119.018-0.024
		c1.609,0.168,2.138-1.648,1.568-2.815C198.943,175.547,196.675,88.863,196.04,2.916z"/>
	<path style="fill:#1D1D1B;" d="M179.665,24.385c-0.229-0.597-0.608-0.97-1.036-1.166c0.782-0.968,0.242-2.923-1.273-2.803
		c-30.096,2.38-60.669-4.797-90.637,1.149c-0.506,0.1-0.568,0.552-0.397,0.916c-0.067,0.16-0.132,0.322-0.154,0.519
		c-2.154,18.932-1.465,39.193-0.112,58.184c0.092,1.287,1.398,1.682,2.236,1.199c0.224,0.469,0.646,0.856,1.297,0.923
		c28.386,2.954,57.113,3.197,85.63,3.125c1.175-0.003,1.78-0.862,1.857-1.772c0.964,0.534,2.463,0.076,2.562-1.39
		c0.716-10.633,1.044-21.301,1.364-31.953C181.266,42.478,182.88,32.774,179.665,24.385z M176.266,82.855
		c-0.283-0.19-0.615-0.332-1.047-0.331c-28.593,0.054-57.065-1.526-85.63-2.312c-0.217-0.006-0.397,0.037-0.566,0.093
		c0.733-18.835,1.55-38.396,0.342-57.18c15.366,1.163,30.96-0.006,46.379,0.46c13.547,0.409,27.135,2.461,40.553,0.354
		c-0.241,0.382-0.367,0.871-0.283,1.453C178.689,44.088,175.947,63.955,176.266,82.855z"/>
	<path style="fill:#1D1D1B;" d="M178.39,96.302c-29.355-1.24-59.505-1.292-88.835,0.525c-0.821,0.051-1.232,0.663-1.234,1.277
		c-0.361,0.207-0.667,0.523-0.739,1.07c-2.593,19.933-2.116,41.513-1.229,61.673c-0.534,0.694-0.449,1.758,0.274,2.204
		c0.366,0.727,1.287,0.795,1.786,0.188c28.973-1.13,57.803-1.808,86.8-1.771c0.595,0.001,1.038-0.222,1.346-0.55
		c1.003,0.471,2.442-0.005,2.498-1.473c0.753-19.77,1.391-40.032,0.197-59.792C180.644,98.855,180.369,96.385,178.39,96.302z
		 M88.941,160.109c1.717-19.801,3.08-40.979,1.395-60.688c28.091,1.708,56.905,1.693,85.059,0.584
		c-1.131,19.078-0.567,38.606,0.152,57.717c-0.114-0.024-0.206-0.075-0.333-0.081C146.544,156.365,117.496,157.135,88.941,160.109z"
		/>
	<path style="fill:#1D1D1B;" d="M178.135,172.743c-0.155-0.863-0.861-1.19-1.564-1.124c-0.102-0.023-0.185-0.07-0.299-0.078
		c-28.727-1.908-58.099-0.334-86.666,2.989c-0.8,0.093-1.229,0.728-1.283,1.361c-1.152-0.701-3.012-0.212-2.977,1.536
		c0.409,20.089,0.689,40.216,2.012,60.27c0.093,1.415,1.749,1.727,2.481,0.916c0.122,0.346,0.391,0.666,0.782,0.712
		c28.626,3.371,58.954,0.481,87.765,0.006c1.004-0.017,1.599-0.643,1.812-1.39c0.492-0.165,0.891-0.593,0.917-1.297
		C181.885,215.813,181.844,193.298,178.135,172.743z M90.388,237.592c-0.097,0.014-0.122,0.083-0.195,0.116
		c0,0,0.002-0.006,0.002-0.01c0.328-20.086-0.393-40.195-0.981-60.27c-0.003-0.093-0.044-0.158-0.057-0.244
		c0.138,0.037,0.278,0.072,0.45,0.063c28.5-1.512,56.875-1.724,85.381-2.253c-0.292,19.919,1.673,40.496,3.175,60.372
		C149.337,235.596,118.936,233.509,90.388,237.592z"/>
	<path style="fill:#1D1D1B;" d="M192.226,248.835c-0.605,0.037-1.21,0.075-1.816,0.113c-1.084,0.067-1.057,1.558,0,1.666
		c-4.497-0.457-8.688-1.262-13.579-1c-5.986,0.321-11.974,0.643-17.96,0.991c-11.121,0.648-22.261,1.221-33.352,2.256
		c-0.649,0.061-0.676,1.04,0,1.031c22.231-0.297,44.517-1.74,66.707-3.094C193.481,250.722,193.488,248.757,192.226,248.835z"/>
	<path style="fill:#1D1D1B;" d="M189.088,244.383c-16.2-1.834-32.894-1.499-49.144-0.512c-0.593,0.036-0.605,0.937,0,0.932
		c16.448-0.132,32.727,0.876,49.144,1.484C190.335,246.333,190.276,244.517,189.088,244.383z"/>
	<path style="fill:#1D1D1B;" d="M195.721,229.832c-5.098,0.257-10.338,1.77-15.349,2.72c-0.797,0.151-0.449,1.327,0.333,1.204
		c4.984-0.781,10.371-1.106,15.202-2.56C196.631,230.977,196.528,229.791,195.721,229.832z"/>
	<path style="fill:#1D1D1B;" d="M191.5,219.495c-3.827,0.909-7.647,1.344-11.575,1.228c-1.142-0.033-1.095,1.635,0,1.745
		c4.098,0.413,8.13-0.007,12.024-1.347C192.967,220.769,192.564,219.243,191.5,219.495z"/>
	<path style="fill:#1D1D1B;" d="M191.573,209.962c-4.125,0.617-8.115,1.246-12.302,1.183c-0.795-0.011-0.787,1.192,0,1.23
		c4.207,0.201,8.595,0.077,12.672-1.074C192.825,211.052,192.434,209.833,191.573,209.962z"/>
	<path style="fill:#1D1D1B;" d="M190.447,201.459c-3.751,0.283-7.403,0.659-11.173,0.423c-0.851-0.053-0.822,1.223,0,1.309
		c3.763,0.393,7.649,0.513,11.365-0.31C191.424,202.707,191.267,201.398,190.447,201.459z"/>
	<path style="fill:#1D1D1B;" d="M190.431,192.278c-4.16,0.101-8.337,0.695-12.478,1.094c-0.799,0.077-0.826,1.316,0,1.269
		c4.146-0.236,8.357-0.285,12.478-0.816C191.385,193.701,191.455,192.252,190.431,192.278z"/>
	<path style="fill:#1D1D1B;" d="M190.546,184.793c-3.85-1.21-9.053,0.021-12.891,0.904c-0.987,0.228-0.566,1.71,0.415,1.511
		c2.309-0.47,4.627-0.799,6.982-0.92c1.838-0.093,3.693,0.088,5.494-0.31C191.166,185.841,191.096,184.965,190.546,184.793z"/>
	<path style="fill:#1D1D1B;" d="M191.269,177.648c-4.635-1.035-9.512-1.03-14.192-0.298c-0.756,0.118-0.585,1.399,0.184,1.343
		c4.611-0.332,8.977-0.047,13.55,0.618C191.877,179.466,192.378,177.895,191.269,177.648z"/>
	<path style="fill:#1D1D1B;" d="M193.029,166.357c-15.514-0.605-31.002-0.887-46.512-1.787c-0.7-0.041-0.667,0.992,0,1.071
		c15.351,1.799,31.052,2.985,46.512,2.58C194.231,168.19,194.229,166.404,193.029,166.357z"/>
	<path style="fill:#1D1D1B;" d="M195.022,154.101c-4.959-0.209-10.187,0.908-15.111,1.497c-1.242,0.149-1.287,2.096,0,1.983
		c5.021-0.44,10.464-0.426,15.357-1.669C196.301,155.65,196.043,154.144,195.022,154.101z"/>
	<path style="fill:#1D1D1B;" d="M193.054,145.134c-3.73,0.172-7.454,0.665-11.17,1.047c-0.81,0.084-0.837,1.345,0,1.289
		c3.722-0.249,7.469-0.39,11.17-0.849C193.975,146.508,194.035,145.09,193.054,145.134z"/>
	<path style="fill:#1D1D1B;" d="M192.845,129.795c-3.993,0.555-7.515,1.438-11.596,0.922c-1.132-0.143-1.406,1.822-0.271,2.006
		c4.04,0.655,8.89,0.825,12.615-1.152C194.651,131.009,193.851,129.655,192.845,129.795z"/>
	<path style="fill:#1D1D1B;" d="M192.387,120.685c-3.557-0.19-7.337,0.777-10.76,1.644c-1.008,0.255-0.578,1.761,0.428,1.549
		c3.495-0.738,7.064-0.87,10.553-1.557C193.568,122.132,193.283,120.733,192.387,120.685z"/>
	<path style="fill:#1D1D1B;" d="M193.07,110.305c-3.11,0.39-6.044,1.16-9.212,1.132c-0.926-0.008-0.915,1.381,0,1.428
		c3.14,0.16,6.659,0.069,9.557-1.285C194.008,111.302,193.74,110.221,193.07,110.305z"/>
	<path style="fill:#1D1D1B;" d="M192.422,98.962c-2.654-0.084-5.218,0.508-7.901,0.258c-1.21-0.112-1.51,1.962-0.291,2.143
		c2.842,0.42,6.035,0.717,8.673-0.627C193.781,100.288,193.316,98.99,192.422,98.962z"/>
	<path style="fill:#1D1D1B;" d="M192.977,86.241c-14.992,1.701-30.076,2.658-45.163,2.938c-0.701,0.012-0.702,1.088,0,1.091
		c15.155,0.039,30.13-0.921,45.163-2.819C193.735,87.355,193.754,86.153,192.977,86.241z"/>
	<path style="fill:#1D1D1B;" d="M193.558,73.494c-3.429,1.032-6.418,2.141-10.082,1.609c-1.206-0.175-1.764,1.631-0.516,1.874
		c3.854,0.751,8.301,0.555,11.486-1.959C195.181,74.439,194.382,73.246,193.558,73.494z"/>
	<path style="fill:#1D1D1B;" d="M190.433,56.957c-3.299,0.31-6.523,0.75-9.848,0.598c-0.919-0.042-1.161,1.5-0.221,1.636
		c3.441,0.495,6.959,0.634,10.322-0.384C191.655,58.514,191.533,56.854,190.433,56.957z"/>
	<path style="fill:#1D1D1B;" d="M194.318,46.378c-3.73,0.9-7.235,1.918-11.112,1.997c-0.909,0.019-0.907,1.377,0,1.408
		c3.947,0.136,8.13-0.212,11.708-1.991C195.721,47.39,195.144,46.178,194.318,46.378z"/>
	<path style="fill:#1D1D1B;" d="M193.062,33.615c-3.047-0.065-6.199,0.634-9.216,1.027c-0.932,0.121-0.992,1.567,0,1.507
		c3.117-0.188,6.397-0.107,9.456-0.762C194.318,35.169,194.056,33.636,193.062,33.615z"/>
	<path style="fill:#1D1D1B;" d="M192.876,23.082c-3.04,0.937-5.808,2.149-9.022,2.466c-0.934,0.093-0.973,1.515,0,1.487
		c3.297-0.094,6.874-0.625,9.58-2.63C194.047,23.951,193.723,22.822,192.876,23.082z"/>
	<path style="fill:#1D1D1B;" d="M193.94,16.643c-3.58-0.633-7.802,0.301-11.412,0.582c-1.182,0.092-1.21,1.913,0,1.864
		c3.602-0.146,7.955,0.306,11.412-0.744C194.715,18.11,194.845,16.803,193.94,16.643z"/>
	<path style="fill:#1D1D1B;" d="M194.995,8.084c-12.443-0.596-24.944-0.011-37.345,1.055c-1.118,0.096-1.142,1.837,0,1.764
		c12.47-0.788,24.863-0.682,37.345-0.38C196.57,10.561,196.557,8.158,194.995,8.084z"/>
</g>
<g>
</g>
<g>
</g>
<g>
</g>
<g>
</g>
<g>
</g>
<g>
</g>
<g>
</g>
<g>
</g>
<g>
</g>
<g>
</g>
<g>
</g>
<g>
</g>
<g>
</g>
<g>
</g>
<g>
</g>
</svg>
