<?xml version="1.0" encoding="iso-8859-1"?>
<!-- Generator: Adobe Illustrator 18.0.0, SVG Export Plug-In . SVG Version: 6.00 Build 0)  -->
<!DOCTYPE svg PUBLIC "-//W3C//DTD SVG 1.1//EN" "http://www.w3.org/Graphics/SVG/1.1/DTD/svg11.dtd">
<svg version="1.1" id="Capa_1" xmlns="http://www.w3.org/2000/svg" xmlns:xlink="http://www.w3.org/1999/xlink" x="0px" y="0px"
	 viewBox="0 0 264.755 264.755" style="enable-background:new 0 0 264.755 264.755;" xml:space="preserve">
<g>
	<path style="fill:#1D1D1B;" d="M221.334,51.305c0.518-0.828,0.152-2.174-1.137-2.219c-1.823-0.063-3.657-0.108-5.483-0.167
		c-10.766-26.131-44.239-32.724-70.324-34.027c0.384-6.709-2.58-15.058-10.611-14.89c-7.154,0.149-9.468,8.443-9.169,14.295
		c0.012,0.236,0.111,0.432,0.24,0.603c-26.965,1.417-56.554,9.321-71.384,32.45c-0.329,0.513-0.113,1.08,0.286,1.421
		c-2.698,0.09-5.406,0.159-8.099,0.259c-0.673,0.024-1.023,0.493-1.084,0.998c-2.021,1.419-2.539,4.723-2.404,7.021
		c0.084,1.418,0.416,2.801,1.03,4.084c0.7,1.466,1.466,2.069,2.625,2.724c-0.455,0.489-0.252,1.42,0.623,1.498
		c2.799,0.249,5.611,0.429,8.424,0.603c7.881,49.692,14.19,99.456,19.47,149.486c1.501,14.22,3.371,29.091,15.516,38.416
		c12.601,9.674,30.481,10.92,45.715,10.894c15.209-0.026,33.055-1.386,45.717-10.868c14.232-10.658,14.464-28.834,16.648-45.027
		c6.373-47.25,11.165-94.688,14.561-142.242c1.778,0.002,3.557,0.011,5.336,0.012c0.868,0,1.398-0.516,1.602-1.152
		C222.335,61.964,223.858,55.529,221.334,51.305z M126.892,14.607c0.611-4.002,1.192-10.471,6.162-11.382
		c6.594-1.209,8.394,6.441,8.15,11.546c-0.663-0.023-1.347-0.058-1.998-0.075c-4.005-0.105-8.158-0.075-12.382,0.099
		C126.846,14.73,126.881,14.682,126.892,14.607z M55.244,48.724c19.041-23.209,49.316-30.279,78.225-30.597
		c25.944-0.285,64.747,4.24,77.571,30.682C159.395,47.205,106.887,47.043,55.244,48.724L55.244,48.724z M198.268,177.912
		c-1.337,11.102-2.756,22.192-4.257,33.273c-1.338,9.876-1.656,21.846-6.641,30.701c-10.689,18.987-38.724,20.092-57.758,19.395
		c-21.931-0.803-43.304-6.214-49.791-29.931c-5.025-18.375-4.613-39.474-6.803-58.37c-4.141-35.732-9.112-71.379-15.208-106.832
		c24.651,1.316,49.734,0.132,74.325,0.22c25.597,0.091,51.194,0.209,76.791,0.242C206.227,103.789,202.724,140.9,198.268,177.912z
		 M218.455,63.234c-0.188-0.07-0.388-0.129-0.627-0.13c-2.254-0.01-4.508-0.008-6.761-0.017c-0.062-0.003-0.121-0.003-0.184,0
		c-26.248-0.096-52.498-0.097-78.748-0.128c-25.025-0.03-50.56-1.38-75.635-0.068c-0.244-0.047-0.499-0.034-0.749,0.05
		c-2.785,0.151-5.565,0.336-8.337,0.557c-0.015-0.042,0-0.081-0.026-0.123c-1.078-1.728-2-4.285-2.108-6.326
		c-0.114-2.143,1.025-3.77,1.404-5.686c56.844,2.3,114.892,2.327,171.767,0.628c0.525,1.805,1.232,3.425,1.233,5.449
		C219.684,59.499,219.245,61.395,218.455,63.234z"/>
	<path style="fill:#1D1D1B;" d="M144.652,94.756c0.197-0.273,0.292-0.63,0.191-1.061c-0.892-3.775-4.69-6.544-8.589-6.041
		c-2.918,0.376-5.122,2.447-5.987,5.057c-0.463-0.521-1.452-0.393-1.468,0.502c-0.888,48.108,0.372,96.403-0.046,144.546
		c-0.008,0.921,0.738,1.318,1.438,1.237c0.403,2.924,2.527,5.412,5.691,5.886c3.186,0.477,7.079-1.665,7.861-4.871
		c0.093-0.181,0.157-0.39,0.159-0.639C144.359,191.264,146.408,142.841,144.652,94.756z M136.712,242.48
		c-2.825,0.02-5.035-2.716-5.309-5.358c2.35-46.338,3.262-94.37-0.643-140.682c0.39-0.024,0.777-0.288,0.831-0.811
		c0.632-6.133,8.848-7.237,10.725-1.238c0.14,0.447,0.432,0.704,0.766,0.828c-2.646,47.895-1.544,96.194-2.009,144.151
		c-0.001,0.101,0.036,0.175,0.052,0.266C140.112,241.19,138.818,242.465,136.712,242.48z"/>
	<path style="fill:#1D1D1B;" d="M182.247,87.74c-3.667-0.406-7.687,1.097-9.619,4.221c-0.583,0.086-1.134,0.483-1.19,1.23
		c-3.594,48.555-9.696,96.899-13.287,145.43c-0.04,0.54,0.471,0.797,0.934,0.761c1.049,3.006,3.804,5.165,7.137,5.201
		c2.431,0.026,5.021-1.202,6.524-3.162c0.379,0.239,0.989,0.178,1.093-0.35c9.24-46.951,13.949-97.313,14.02-145.209
		C190.593,92.071,185.954,88.151,182.247,87.74z M185.688,94.032c-0.013,0.154-0.028,0.308-0.041,0.463
		c-0.026,0.201-0.012,0.378-0.066,0.597c-0.034,0.138-0.04,0.274-0.023,0.407c-4.097,47.351-8.497,94.65-12.804,141.983
		c-0.376,0.04-0.746,0.209-0.963,0.499c-1.495,2.006-2.753,3.938-5.568,3.955c-2.68,0.017-4.992-1.982-5.923-4.393
		c-0.065-0.169-0.184-0.246-0.294-0.339c7.395-47.549,10.529-96.06,14.07-144.014c0.023-0.309-0.067-0.541-0.196-0.737
		c1.386-1.422,3.336-2.089,5.447-2.242c2.892-0.21,6.427,0.631,6.38,3.763C185.702,93.995,185.69,94.01,185.688,94.032z"/>
	<path style="fill:#1D1D1B;" d="M110.44,235.91c-0.018-0.095-0.088-0.142-0.128-0.219c-1.228-47.846-9.982-96.514-15.215-144.087
		c-0.116-1.058-1.138-1.485-1.93-1.307c-1.439-2.304-5.325-3.414-7.666-3.052c-3.084,0.476-5.415,2.872-6.067,5.762
		c-0.311,0.203-0.528,0.538-0.489,1.047c3.757,47.987,7.891,96.442,15.628,143.97c0.16,0.98,1.775,0.777,1.768-0.183
		c0.965,3.048,3.667,5.359,7.075,5.229C106.862,242.938,111.131,239.675,110.44,235.91z M103.599,240.524
		c-2.918,0.331-5.459-1.832-6.18-4.569c-0.152-0.578-0.916-0.651-1.266-0.305C91.8,188.41,85.885,141.313,81.597,94.053
		c-0.013-0.151-0.067-0.274-0.117-0.398c0.867-2.129,2.75-3.855,5.172-3.826c2.745,0.033,3.542,2.095,5.537,3.313
		c0.069,0.042,0.141,0.034,0.212,0.058c5.078,47.112,7.168,95.919,16.203,142.411c-0.016,0.021-0.045,0.027-0.059,0.05
		C107.235,237.83,106.589,240.185,103.599,240.524z"/>
	<path style="fill:#1D1D1B;" d="M177.574,251.741c-8.202-0.16-16.66,1.626-24.909,1.953c-0.745,0.03-0.752,1.174,0,1.164
		c8.048-0.116,17.28,0.216,25.049-2.075C178.288,252.614,178.176,251.753,177.574,251.741z"/>
	<path style="fill:#1D1D1B;" d="M185.372,246.107c-6.105,0.919-11.663,1.649-17.827,0.702c-0.716-0.111-1.037,0.972-0.306,1.105
		c6.007,1.091,12.613,1.401,18.479-0.552C186.528,247.09,186.186,245.985,185.372,246.107z"/>
	<path style="fill:#1D1D1B;" d="M188.173,240.352c-4.346,0.722-8.486,1.103-12.887,1.097c-0.376,0-0.478,0.593-0.091,0.672
		c4.312,0.882,9.088,0.694,13.292-0.631C189.224,241.258,188.913,240.23,188.173,240.352z"/>
	<path style="fill:#1D1D1B;" d="M191.671,230.403c-6.032-0.21-12.069,0.07-18.109-0.183c-0.822-0.034-0.804,1.202,0,1.266
		c5.961,0.475,12.151,0.89,18.109,0.234C192.496,231.629,192.537,230.433,191.671,230.403z"/>
	<path style="fill:#1D1D1B;" d="M192.831,220.526c-5.544,0.226-10.895,0.642-16.446,0.111c-0.654-0.063-0.631,0.928,0,1.009
		c5.437,0.702,11.187,1.109,16.615,0.14C193.715,221.659,193.548,220.497,192.831,220.526z"/>
	<path style="fill:#1D1D1B;" d="M193.954,208.63c-5.529,0.496-10.877,0.727-16.403,0.015c-0.399-0.051-0.496,0.638-0.096,0.705
		c5.492,0.932,11.132,1.297,16.656,0.439C194.763,209.689,194.617,208.571,193.954,208.63z"/>
	<path style="fill:#1D1D1B;" d="M196.194,198.294c-5.301,0.307-10.519,0.543-15.824,0.126c-0.578-0.045-0.56,0.827,0,0.89
		c5.246,0.588,10.574,0.83,15.824,0.148C196.912,199.364,196.96,198.25,196.194,198.294z"/>
	<path style="fill:#1D1D1B;" d="M196.196,189.76c-4.703-0.339-9.424-0.253-14.128-0.633c-0.878-0.071-0.847,1.25,0,1.352
		c4.661,0.561,9.437,1.065,14.128,0.615C197.046,191.013,197.062,189.823,196.196,189.76z"/>
	<path style="fill:#1D1D1B;" d="M200.752,178.505c-5.941,0.448-11.413,0.896-17.335-0.227c-0.964-0.183-1.385,1.275-0.41,1.485
		c5.802,1.25,12.157,1.848,17.955,0.288C201.795,179.827,201.659,178.436,200.752,178.505z"/>
	<path style="fill:#1D1D1B;" d="M201.848,167.025c-6.244-0.347-12.433-0.082-18.686-0.685c-0.618-0.059-0.766,0.987-0.15,1.093
		c6.05,1.03,12.731,1.896,18.835,1.081C202.773,168.39,202.832,167.08,201.848,167.025z"/>
	<path style="fill:#1D1D1B;" d="M200.153,152.819c-4.856-0.323-9.835,0.101-14.7,0.223c-0.802,0.02-0.804,1.229,0,1.249
		c4.863,0.122,9.844,0.547,14.7,0.223C201.242,154.441,201.244,152.892,200.153,152.819z"/>
	<path style="fill:#1D1D1B;" d="M200.734,140.753c-3.911-0.202-8.167,0.553-12.048,1.076c-0.7,0.095-0.528,1.25,0.166,1.227
		c3.918-0.133,8.233-0.119,12.062-0.975C201.686,141.907,201.47,140.791,200.734,140.753z"/>
	<path style="fill:#1D1D1B;" d="M202.424,128.418c-4.956-0.48-10.313,0.32-15.282,0.633c-0.675,0.042-0.689,1.054,0,1.061
		c5.047,0.047,10.491,0.539,15.484-0.215C203.523,129.761,203.202,128.492,202.424,128.418z"/>
	<path style="fill:#1D1D1B;" d="M201.928,116.526c-2.384-0.062-4.722,0.6-7.125,0.611c-2.712,0.011-5.358-0.382-7.978-1.066
		c-0.845-0.22-1.185,1.04-0.36,1.304c4.685,1.494,11.208,2.74,15.827,0.506C202.974,117.552,202.603,116.544,201.928,116.526z"/>
	<path style="fill:#1D1D1B;" d="M205.804,104.649c-5.679-0.019-11.291,0.25-16.972-0.124c-0.87-0.058-0.834,1.237,0,1.334
		c5.567,0.649,11.374,1.167,16.972,0.62C206.953,106.367,207.005,104.653,205.804,104.649z"/>
	<path style="fill:#1D1D1B;" d="M205.257,94.891c-5.519,0.152-10.876,0.538-16.4,0.033c-0.545-0.05-0.52,0.77,0,0.838
		c5.362,0.705,11.009,1.289,16.4,0.635C206.191,96.283,206.253,94.863,205.257,94.891z"/>
	<path style="fill:#1D1D1B;" d="M205.808,84.445c-14.317-0.031-28.617,1.088-42.971,0.921c-0.713-0.008-0.695,1.042,0,1.095
		c14.104,1.077,29.166,1.731,43.197-0.353C206.995,85.966,206.738,84.448,205.808,84.445z"/>
	<path style="fill:#1D1D1B;" d="M207.5,76.75c-14.889,0.139-29.764,0.709-44.658,0.71c-0.586,0-0.583,0.881,0,0.907
		c14.844,0.654,29.804,1.178,44.658,0.572C208.901,78.882,208.917,76.736,207.5,76.75z"/>
	<path style="fill:#1D1D1B;" d="M208.762,41.599c-0.1-0.077-0.2-0.154-0.301-0.231c-0.278-0.215-0.857-0.141-1.078,0.139
		c-0.059,0.074-0.116,0.148-0.174,0.222c-0.381,0.483-0.201,1.007,0.164,1.275c-2.837-0.088-10.542-0.909-12.317-0.885
		c-4.817,0.061-9.632,0.058-14.448,0.001c-8.948-0.105-17.87-0.479-26.807-0.891c-0.624-0.028-0.606,0.903,0,0.958
		c10.972,0.991,21.982,1.554,32.999,1.736c5.886,0.098,16.736,2.188,21.963-0.724C209.43,42.825,209.284,42,208.762,41.599z"/>
	<path style="fill:#1D1D1B;" d="M202.413,32.394c-14.926-0.284-29.759-0.252-44.68-1.095c-0.648-0.037-0.622,0.924,0,0.992
		c14.712,1.615,29.886,2.605,44.68,1.762C203.473,33.993,203.489,32.415,202.413,32.394z"/>
	<path style="fill:#1D1D1B;" d="M186.04,23.54c-12.715-1.205-25.711-1.516-38.482-1.748c-0.659-0.012-0.636,0.951,0,1.009
		c12.732,1.152,25.7,2.255,38.482,2.432C187.148,25.248,187.107,23.64,186.04,23.54z"/>
</g>
<g>
</g>
<g>
</g>
<g>
</g>
<g>
</g>
<g>
</g>
<g>
</g>
<g>
</g>
<g>
</g>
<g>
</g>
<g>
</g>
<g>
</g>
<g>
</g>
<g>
</g>
<g>
</g>
<g>
</g>
</svg>
